<svg width="340" height="340" viewBox="0 0 340 340" fill="none" xmlns="http://www.w3.org/2000/svg">
<path d="M10 259.88H330V303.333H10V259.88Z" fill="#CDDBFF"/>
<path d="M187.422 69.553C187.422 69.553 173.807 68.762 170 82.5V278.482C173.807 264.749 187.422 265.54 187.422 265.54V265.531H330V69.553H187.422Z" fill="#EAF5FF"/>
<path d="M152.578 69.553C152.578 69.553 165.698 68.73 169.505 82.463L170.005 278.482C166.198 264.749 152.583 265.54 152.583 265.54V265.531H10V69.553H152.578Z" fill="#99A8DB"/>
<path d="M301.324 129.7H223.405C222.344 129.7 221.327 129.279 220.577 128.528C219.826 127.778 219.405 126.761 219.405 125.7C219.405 124.639 219.826 123.622 220.577 122.872C221.327 122.121 222.344 121.7 223.405 121.7H301.324C306.557 121.777 306.6 129.6 301.324 129.7ZM301.324 157.356H206.653C201.426 157.275 201.371 149.448 206.653 149.356H301.323C306.551 149.436 306.607 157.264 301.324 157.356ZM301.324 185.017H206.653C201.426 184.937 201.371 177.109 206.653 177.017H301.323C306.551 177.1 306.607 184.925 301.324 185.017ZM284.571 212.678H279.507C278.446 212.678 277.429 212.257 276.679 211.506C275.928 210.756 275.507 209.739 275.507 208.678C275.507 207.617 275.928 206.6 276.679 205.85C277.429 205.099 278.446 204.678 279.507 204.678H284.571C289.828 204.767 289.83 212.589 284.571 212.678ZM253.988 212.678H206.653C201.41 212.593 201.384 204.769 206.653 204.678H253.987C259.232 204.763 259.257 212.588 253.988 212.678Z" fill="#FEFCE8"/>
<path d="M114.939 129.7H50.965C45.727 129.616 45.691 121.791 50.965 121.7H114.939C120.177 121.778 120.213 129.6 114.939 129.7ZM114.939 157.356H50.965C45.727 157.272 45.691 149.447 50.965 149.356H114.939C120.177 149.439 120.213 157.265 114.939 157.356ZM114.939 185.017H50.965C45.727 184.933 45.691 177.108 50.965 177.017H114.939C120.177 177.1 120.213 184.926 114.939 185.017ZM145.079 212.678H50.965C45.738 212.598 45.683 204.77 50.965 204.678H145.079C150.306 204.759 150.361 212.586 145.079 212.678Z" fill="#FDE68A"/>
<path d="M170 280.432C170 280.432 162.38 221.565 75.333 190.441V7.97501C149.079 29.489 170 82.5 170 82.5V280.432Z" fill="#CDDBFF"/>
<path d="M146.617 280.432H10V288.432H146.617C151.862 288.347 151.885 280.522 146.617 280.432ZM330 280.432H235.987C234.46 280.432 233.222 282.223 233.222 284.432C233.222 286.641 234.46 288.432 235.987 288.432H330V280.432ZM198.437 284.432H227.587V303.333H198.437V284.432Z" fill="#A0ABD9"/>
<path d="M193.98 284.432V331.641L214.762 322.245L235.544 331.641V284.432H193.98Z" fill="#10B981"/>
<path d="M330 307.333H253.988C252.927 307.333 251.91 306.912 251.16 306.161C250.409 305.411 249.988 304.394 249.988 303.333C249.988 302.272 250.409 301.255 251.16 300.505C251.91 299.754 252.927 299.333 253.988 299.333H326V265.533C326.087 260.284 333.91 260.269 334 265.533V303.333C334 304.394 333.579 305.411 332.828 306.161C332.078 306.912 331.061 307.333 330 307.333ZM193.979 307.333H10C8.93913 307.333 7.92172 306.912 7.17157 306.161C6.42143 305.411 6 304.394 6 303.333V265.533C6 264.472 6.42143 263.455 7.17157 262.705C7.92172 261.954 8.93913 261.533 10 261.533C11.0609 261.533 12.0783 261.954 12.8284 262.705C13.5786 263.455 14 264.472 14 265.533V299.333H193.979C199.219 299.417 199.251 307.242 193.979 307.333Z" fill="#082F49"/>
<path d="M170 282.482C168.94 282.479 167.925 282.056 167.175 281.307C166.426 280.557 166.003 279.542 166 278.482V82.5C168.424 69.123 181.7 64.975 187.529 65.558H330C331.061 65.558 332.078 65.9794 332.828 66.7296C333.579 67.4797 334 68.4971 334 69.558V265.531C334 266.592 333.579 267.609 332.828 268.359C332.078 269.11 331.061 269.531 330 269.531C329.5 269.523 187.649 269.531 187.193 269.531C184.155 269.405 181.167 270.333 178.736 272.159C176.305 273.985 174.58 276.595 173.854 279.548C173.621 280.391 173.118 281.135 172.422 281.665C171.725 282.195 170.875 282.482 170 282.482ZM174 83.067V265.7C177.886 262.909 182.569 261.447 187.353 261.53H326V73.553C325.791 73.547 187.407 73.563 187.215 73.547C186.153 73.5 176.985 73.391 174 83.067Z" fill="#082F49"/>
<path d="M170 282.483C169.126 282.482 168.276 282.195 167.58 281.665C166.884 281.136 166.381 280.393 166.148 279.55C165.419 276.595 163.69 273.982 161.254 272.157C158.818 270.331 155.825 269.404 152.784 269.534C152.684 269.883 10.215 269.276 10.002 269.534C8.94113 269.534 7.92372 269.113 7.17357 268.362C6.42343 267.612 6.002 266.595 6.002 265.534V69.553C6.002 68.4921 6.42343 67.4747 7.17357 66.7246C7.92372 65.9744 8.94113 65.553 10.002 65.553H54.175C55.2359 65.553 56.2533 65.9744 57.0034 66.7246C57.7536 67.4747 58.175 68.4921 58.175 69.553C58.175 70.6139 57.7536 71.6313 57.0034 72.3814C56.2533 73.1316 55.2359 73.553 54.175 73.553H14V261.531H152.647C157.458 261.385 162.176 262.877 166.028 265.762C169.881 268.647 172.64 272.754 173.854 277.412C174.016 278.006 174.038 278.629 173.921 279.233C173.803 279.838 173.548 280.407 173.176 280.897C172.803 281.387 172.323 281.785 171.773 282.06C171.222 282.335 170.616 282.48 170 282.483ZM235.544 336.024C234.922 336.639 215.695 327.148 214.762 326.948L195.639 335.664C195.03 335.942 194.36 336.062 193.692 336.014C193.024 335.966 192.379 335.751 191.815 335.389C191.252 335.027 190.789 334.529 190.468 333.941C190.147 333.353 189.979 332.694 189.979 332.024V284.432C189.979 283.371 190.4 282.354 191.151 281.604C191.901 280.853 192.918 280.432 193.979 280.432H235.544C236.605 280.432 237.622 280.853 238.372 281.604C239.123 282.354 239.544 283.371 239.544 284.432V332.024C239.538 333.083 239.114 334.097 238.365 334.845C237.617 335.594 236.603 336.018 235.544 336.024ZM214.762 318.552C214.772 317.81 230.992 325.675 231.544 325.805V288.432H197.979V325.805C198.582 325.657 214.693 317.83 214.762 318.552Z" fill="#082F49"/>
<path d="M170 268.963C169.213 268.963 168.443 268.731 167.787 268.296C167.131 267.861 166.618 267.242 166.312 266.516C166.18 266.206 160.024 252.006 145.725 236.136C126.857 215.168 101.951 200.566 74.439 194.341C73.5559 194.139 72.7675 193.643 72.2028 192.935C71.6382 192.226 71.3308 191.347 71.331 190.441V7.975C71.3361 7.37556 71.4749 6.78482 71.7373 6.24586C71.9998 5.70689 72.3792 5.23329 72.8479 4.85961C73.3167 4.48593 73.8629 4.22157 74.4468 4.08584C75.0307 3.9501 75.6375 3.9464 76.223 4.075C125.154 14.058 161.411 53.113 173.684 80.942C175.628 85.842 168.442 88.849 166.312 84.048C155.926 59.711 122.034 23.2 79.333 13.084V187.284C107.355 194.276 132.634 209.516 151.9 231.031C167.089 247.965 173.429 262.786 173.691 263.408C173.942 264.017 174.04 264.678 173.975 265.333C173.911 265.989 173.687 266.618 173.323 267.167C172.958 267.715 172.465 268.166 171.885 268.479C171.306 268.792 170.659 268.959 170 268.963Z" fill="#082F49"/>
</svg>
