<svg width="256" height="256" viewBox="0 0 256 256" fill="none" xmlns="http://www.w3.org/2000/svg">
<rect width="256" height="256" fill="none"/>
<path d="M222.394 180.635H33.605C24.158 180.635 16.5 172.977 16.5 163.53V33.241C16.5 23.794 24.158 16.135 33.605 16.135H222.394C231.841 16.135 239.5 23.794 239.5 33.241V163.53C239.5 172.977 231.842 180.635 222.394 180.635Z" fill="#082F49"/>
<path d="M222.394 182.135H33.605C23.346 182.135 15 173.789 15 163.53V33.241C15 22.982 23.346 14.636 33.605 14.636H222.394C232.653 14.636 241 22.982 241 33.241V163.53C241 173.789 232.654 182.135 222.394 182.135ZM33.605 17.635C25 17.635 18 24.636 18 33.241V163.53C18 172.135 25 179.136 33.605 179.136H222.394C230.999 179.136 238 172.135 238 163.53V33.241C238 24.636 230.999 17.636 222.394 17.636L33.605 17.635Z" fill="black"/>
<path d="M86.201 28.635H41.031C34.448 28.635 29.111 33.972 29.111 40.555V156.215C29.111 162.798 34.448 168.135 41.031 168.135H214.969C221.552 168.135 226.889 162.798 226.889 156.215V40.555C226.889 33.972 221.552 28.635 214.969 28.635H86.201Z" fill="#059669"/>
<path d="M214.969 169.635H41.031C33.631 169.635 27.611 163.615 27.611 156.215V40.555C27.611 33.155 33.631 27.135 41.031 27.135H86.201C86.5988 27.135 86.9804 27.293 87.2617 27.5743C87.543 27.8556 87.701 28.2372 87.701 28.635C87.701 29.0328 87.543 29.4144 87.2617 29.6957C86.9804 29.977 86.5988 30.135 86.201 30.135H41.031C35.285 30.135 30.611 34.809 30.611 40.555V156.215C30.611 161.961 35.285 166.635 41.031 166.635H214.969C220.715 166.635 225.389 161.961 225.389 156.215V40.555C225.389 34.809 220.715 30.135 214.969 30.135H99.799C99.4012 30.135 99.0196 29.977 98.7383 29.6957C98.457 29.4144 98.299 29.0328 98.299 28.635C98.299 28.2372 98.457 27.8556 98.7383 27.5743C99.0196 27.293 99.4012 27.135 99.799 27.135H214.969C222.369 27.135 228.389 33.155 228.389 40.555V156.215C228.389 163.615 222.369 169.635 214.969 169.635Z" fill="black"/>
<path d="M113.687 180.635H142.312V216.228H113.687V180.635Z" fill="#082F49"/>
<path d="M142.312 217.729H113.687C113.289 217.729 112.908 217.571 112.626 217.29C112.345 217.008 112.187 216.627 112.187 216.229V180.636C112.187 180.238 112.345 179.857 112.626 179.575C112.908 179.294 113.289 179.136 113.687 179.136H142.312C142.71 179.136 143.091 179.294 143.373 179.575C143.654 179.857 143.812 180.238 143.812 180.636V216.229C143.812 216.627 143.654 217.008 143.373 217.29C143.091 217.571 142.71 217.729 142.312 217.729ZM115.187 214.729H140.812V182.136H115.187V214.729Z" fill="black"/>
<path d="M135.451 239.635H171.703C171.703 226.708 161.223 216.228 148.296 216.228H107.703C94.776 216.228 84.296 226.707 84.296 239.635H135.451Z" fill="#082F49"/>
<path d="M171.703 241.135H135.452C135.054 241.135 134.673 240.977 134.391 240.696C134.11 240.414 133.952 240.033 133.952 239.635C133.952 239.237 134.11 238.856 134.391 238.574C134.673 238.293 135.054 238.135 135.452 238.135H170.153C169.38 226.753 159.872 217.728 148.297 217.728H107.704C96.129 217.728 86.622 226.752 85.848 238.135H121.882C122.28 238.135 122.661 238.293 122.943 238.574C123.224 238.856 123.382 239.237 123.382 239.635C123.382 240.033 123.224 240.414 122.943 240.696C122.661 240.977 122.28 241.135 121.882 241.135H84.297C83.8992 241.135 83.5176 240.977 83.2363 240.696C82.955 240.414 82.797 240.033 82.797 239.635C82.797 225.902 93.97 214.728 107.704 214.728H148.297C162.03 214.728 173.204 225.901 173.204 239.635C173.204 239.832 173.165 240.027 173.09 240.209C173.014 240.391 172.904 240.557 172.764 240.696C172.625 240.835 172.459 240.946 172.277 241.021C172.095 241.096 171.9 241.135 171.703 241.135Z" fill="black"/>
<path d="M47.671 203.469C47.671 203.469 51.079 216.128 60.893 216.716C60.893 216.716 47.793 221.241 47.572 230.918C47.572 230.918 44.993 217.346 34.647 216.859C34.647 216.859 46.697 215.033 47.671 203.469Z" fill="#059669"/>
<path d="M47.57 232.417C47.2215 232.417 46.884 232.295 46.6155 232.073C46.3469 231.851 46.1639 231.542 46.098 231.2C46.074 231.076 43.603 218.783 34.575 218.358C34.2026 218.341 33.8499 218.186 33.5855 217.924C33.321 217.661 33.1639 217.309 33.1447 216.937C33.1255 216.565 33.2455 216.199 33.4815 215.91C33.7174 215.621 34.0524 215.431 34.421 215.376C34.862 215.307 45.316 213.559 46.176 203.343C46.2062 202.992 46.359 202.663 46.6076 202.413C46.8563 202.163 47.1849 202.009 47.5359 201.977C47.8869 201.946 48.2378 202.039 48.5271 202.24C48.8164 202.441 49.0256 202.738 49.118 203.078C49.15 203.194 52.377 214.704 60.981 215.219C61.3275 215.239 61.6563 215.379 61.9111 215.615C62.166 215.851 62.3312 216.168 62.3786 216.511C62.426 216.855 62.3527 217.205 62.1712 217.501C61.9896 217.797 61.7111 218.021 61.383 218.134C61.262 218.176 49.265 222.445 49.07 230.953C49.0606 231.345 48.8984 231.717 48.6181 231.99C48.3378 232.264 47.9617 232.417 47.57 232.417ZM39.83 216.688C43.708 218.657 46.06 222.434 47.417 225.565C49.443 221.544 53.359 218.778 56.366 217.138C52.231 215.296 49.583 211.487 48.032 208.415C46.239 212.774 42.76 215.283 39.83 216.688Z" fill="black"/>
<path d="M25.972 220.45C25.972 220.45 28.383 229.404 35.324 229.819C35.324 229.819 26.058 233.02 25.902 239.865C25.902 239.865 24.078 230.265 16.76 229.921C16.76 229.921 25.284 228.629 25.972 220.45Z" fill="#059669"/>
<path d="M25.9 241.365C25.551 241.365 25.2131 241.243 24.9445 241.02C24.6758 240.797 24.4931 240.488 24.428 240.145C24.412 240.063 22.724 231.704 16.689 231.419C16.3176 231.401 15.9663 231.245 15.703 230.983C15.4398 230.72 15.2835 230.369 15.2645 229.998C15.2454 229.626 15.3649 229.261 15.5999 228.973C15.8348 228.685 16.1684 228.494 16.536 228.438C16.832 228.391 23.9 227.195 24.478 220.324C24.508 219.973 24.6607 219.643 24.9093 219.394C25.1579 219.144 25.4865 218.989 25.8375 218.958C26.1885 218.926 26.5395 219.019 26.8289 219.22C27.1182 219.421 27.3275 219.718 27.42 220.058C27.441 220.137 29.648 227.978 35.414 228.323C35.7604 228.344 36.0888 228.484 36.3434 228.72C36.598 228.956 36.7629 229.273 36.8101 229.616C36.8572 229.96 36.7838 230.31 36.6021 230.605C36.4205 230.901 36.142 231.125 35.814 231.238C35.733 231.266 27.532 234.19 27.401 239.9C27.3926 240.27 27.2474 240.625 26.9933 240.895C26.7393 241.164 26.3943 241.33 26.025 241.361C25.983 241.363 25.942 241.365 25.9 241.365ZM21.382 229.837C23.489 231.17 24.906 233.231 25.829 235.117C27.205 232.885 29.344 231.245 31.194 230.144C28.907 228.874 27.31 226.794 26.253 224.92C25.079 227.208 23.238 228.796 21.382 229.837Z" fill="black"/>
<path d="M25.972 193.792C25.972 193.792 28.383 202.746 35.324 203.161C35.324 203.161 26.058 206.362 25.902 213.207C25.902 213.207 24.078 203.607 16.76 203.263C16.76 203.263 25.284 201.972 25.972 193.792Z" fill="#059669"/>
<path d="M25.901 214.708C25.5519 214.708 25.2137 214.586 24.9448 214.363C24.676 214.141 24.4932 213.831 24.428 213.488C24.412 213.407 22.724 205.046 16.689 204.762C16.3167 204.745 15.9641 204.59 15.6998 204.327C15.4355 204.064 15.2785 203.713 15.2594 203.34C15.2403 202.968 15.3605 202.602 15.5965 202.314C15.8325 202.025 16.1674 201.835 16.536 201.78C16.832 201.733 23.9 200.537 24.478 193.667C24.508 193.316 24.6607 192.986 24.9093 192.737C25.1579 192.487 25.4865 192.332 25.8375 192.301C26.1885 192.269 26.5395 192.362 26.8289 192.563C27.1182 192.764 27.3275 193.061 27.42 193.401C27.441 193.48 29.648 201.32 35.414 201.665C35.7604 201.686 36.0888 201.826 36.3434 202.062C36.598 202.298 36.7629 202.615 36.8101 202.958C36.8572 203.302 36.7838 203.652 36.6021 203.947C36.4205 204.243 36.142 204.467 35.814 204.58C35.733 204.608 27.532 207.533 27.401 213.242C27.3921 213.634 27.2302 214.007 26.9498 214.281C26.6695 214.555 26.293 214.708 25.901 214.708ZM21.382 203.18C23.489 204.513 24.905 206.575 25.829 208.46C27.205 206.228 29.344 204.588 31.194 203.487C28.907 202.218 27.31 200.137 26.253 198.264C25.079 200.55 23.238 202.139 21.382 203.18ZM55.465 169.635C55.0672 169.635 54.6856 169.477 54.4043 169.196C54.123 168.914 53.965 168.533 53.965 168.135V154.796C53.965 154.398 54.123 154.017 54.4043 153.735C54.6856 153.454 55.0672 153.296 55.465 153.296C55.8628 153.296 56.2444 153.454 56.5257 153.735C56.807 154.017 56.965 154.398 56.965 154.796V168.135C56.965 168.533 56.807 168.914 56.5257 169.196C56.2444 169.477 55.8628 169.635 55.465 169.635ZM125.019 169.635C124.621 169.635 124.24 169.477 123.958 169.196C123.677 168.914 123.519 168.533 123.519 168.135V154.796C123.519 154.398 123.677 154.017 123.958 153.735C124.24 153.454 124.621 153.296 125.019 153.296C125.417 153.296 125.798 153.454 126.08 153.735C126.361 154.017 126.519 154.398 126.519 154.796V168.135C126.519 168.533 126.361 168.914 126.08 169.196C125.798 169.477 125.417 169.635 125.019 169.635Z" fill="black"/>
<path d="M129.355 95.0944C129.556 91.0523 126.442 87.6124 122.4 87.4113C118.358 87.2101 114.918 90.3238 114.717 94.366C114.516 98.4081 117.63 101.848 121.672 102.049C125.714 102.25 129.154 99.1366 129.355 95.0944Z" fill="#FCE8CB"/>
<path d="M122.032 103.563C117.164 103.563 113.204 99.603 113.204 94.735C113.204 89.867 117.164 85.906 122.032 85.906C126.9 85.906 130.861 89.866 130.861 94.735C130.861 99.602 126.9 103.563 122.032 103.563ZM122.032 88.906C120.487 88.9079 119.005 89.5226 117.913 90.6154C116.82 91.7082 116.206 93.1897 116.204 94.735C116.206 96.2802 116.82 97.7616 117.913 98.8543C119.005 99.9469 120.487 100.561 122.032 100.563C123.577 100.561 125.059 99.9469 126.152 98.8543C127.244 97.7617 127.859 96.2803 127.861 94.735C127.859 93.1896 127.244 91.7081 126.152 90.6153C125.059 89.5226 123.577 88.9079 122.032 88.906Z" fill="black"/>
<path d="M54.744 76.953H124.469V156.759H54.744V76.953Z" fill="#082F49"/>
<path d="M124.469 158.259H54.744C54.3462 158.259 53.9646 158.101 53.6833 157.82C53.402 157.538 53.244 157.157 53.244 156.759V76.953C53.244 76.5552 53.402 76.1736 53.6833 75.8923C53.9646 75.611 54.3462 75.453 54.744 75.453H124.469C124.867 75.453 125.248 75.611 125.53 75.8923C125.811 76.1736 125.969 76.5552 125.969 76.953V156.759C125.969 157.157 125.811 157.538 125.53 157.82C125.248 158.101 124.867 158.259 124.469 158.259ZM56.244 155.259H122.969V78.453H56.244V155.259Z" fill="black"/>
<path d="M131.34 168.135V159.688C131.34 149.402 123.002 141.064 112.716 141.064H100.41V133.067C97.007 135.426 93.485 136.819 90.068 136.819C86.79 136.819 83.331 135.413 79.941 133.025H79.732V141.064H67.421C57.135 141.064 48.797 149.402 48.797 159.688V168.135H131.34Z" fill="#FCE8CB"/>
<path d="M131.339 169.635H48.796C48.3982 169.635 48.0166 169.477 47.7353 169.196C47.454 168.914 47.296 168.533 47.296 168.135V159.688C47.296 148.592 56.324 139.564 67.42 139.564H78.232V133.025C78.232 132.627 78.39 132.246 78.6713 131.964C78.9526 131.683 79.3342 131.525 79.732 131.525H79.94C80.249 131.525 80.551 131.621 80.804 131.799C84.119 134.134 87.236 135.319 90.067 135.319C93.027 135.319 96.22 134.147 99.555 131.835C99.7801 131.68 100.043 131.589 100.317 131.572C100.59 131.555 100.862 131.613 101.104 131.74C101.347 131.867 101.55 132.058 101.692 132.292C101.833 132.526 101.909 132.794 101.909 133.068V139.565H112.714C123.81 139.565 132.838 148.593 132.838 159.689V168.136C132.838 168.333 132.799 168.528 132.724 168.71C132.649 168.892 132.538 169.057 132.399 169.196C132.26 169.335 132.095 169.446 131.913 169.521C131.731 169.596 131.536 169.635 131.339 169.635ZM50.296 166.635H129.839V159.688C129.839 150.246 122.157 142.564 112.715 142.564H100.41C100.012 142.564 99.6307 142.406 99.3493 142.125C99.068 141.843 98.91 141.462 98.91 141.064V135.773C95.882 137.464 92.916 138.318 90.068 138.318C87.26 138.318 84.297 137.418 81.233 135.637V141.064C81.233 141.462 81.075 141.843 80.7937 142.125C80.5124 142.406 80.1308 142.564 79.733 142.564H67.42C57.978 142.564 50.296 150.246 50.296 159.688V166.635Z" fill="black"/>
<path d="M131.34 168.135V159.683C131.34 149.397 123.002 141.058 112.715 141.058H109.771L109.848 141.114L97.049 158.089L90.444 153.113L83.839 158.089L71.04 141.114L71.116 141.058H67.42C57.134 141.058 48.796 149.396 48.796 159.683V168.135H131.34Z" fill="#F16C7A"/>
<path d="M131.34 169.635H48.796C48.3982 169.635 48.0166 169.477 47.7353 169.196C47.454 168.914 47.296 168.533 47.296 168.135V159.683C47.296 148.586 56.324 139.558 67.42 139.558H71.116C71.4324 139.558 71.7406 139.658 71.9968 139.844C72.2529 140.029 72.4437 140.291 72.542 140.592L72.554 140.632L84.134 155.989L89.541 151.914C89.8013 151.718 90.1182 151.612 90.444 151.612C90.7698 151.612 91.0867 151.718 91.347 151.914L96.754 155.988L108.423 140.511C108.65 139.951 109.161 139.557 109.771 139.557H112.715C123.812 139.557 132.84 148.585 132.84 159.682V168.134C132.84 168.331 132.801 168.526 132.726 168.708C132.651 168.89 132.54 169.056 132.401 169.195C132.262 169.335 132.096 169.445 131.914 169.521C131.732 169.596 131.537 169.635 131.34 169.635ZM50.296 166.635H129.839V159.683C129.839 150.24 122.157 142.558 112.714 142.558H110.637L98.245 158.992C98.1264 159.149 97.978 159.282 97.8083 159.382C97.6385 159.482 97.4507 159.547 97.2556 159.575C97.0605 159.602 96.8619 159.591 96.6712 159.541C96.4805 159.492 96.3013 159.406 96.144 159.287L90.442 154.991L84.74 159.288C84.4222 159.527 84.0224 159.631 83.6285 159.575C83.2345 159.52 82.8786 159.311 82.639 158.993L70.25 142.558H67.421C57.979 142.558 50.297 150.24 50.297 159.683L50.296 166.635Z" fill="black"/>
<path d="M59.2776 102.125C63.2711 101.468 65.9759 97.6978 65.319 93.7044C64.6621 89.7109 60.8923 87.006 56.8988 87.6629C52.9053 88.3198 50.2005 92.0897 50.8574 96.0832C51.5143 100.077 55.2841 102.781 59.2776 102.125Z" fill="#FCE8CB"/>
<path d="M58.087 103.723C53.219 103.723 49.259 99.763 49.259 94.895C49.259 90.027 53.219 86.066 58.087 86.066C62.955 86.066 66.916 90.027 66.916 94.895C66.916 99.763 62.956 103.723 58.087 103.723ZM58.087 89.066C56.5417 89.0679 55.0603 89.6826 53.9677 90.7754C52.8751 91.8682 52.2606 93.3497 52.259 94.895C52.2606 96.4402 52.8751 97.9216 53.9677 99.0143C55.0604 100.107 56.5418 100.721 58.087 100.723C59.6323 100.721 61.1138 100.107 62.2066 99.0143C63.2994 97.9217 63.9142 96.4403 63.916 94.895C63.9142 93.3496 63.2994 91.8681 62.2067 90.7753C61.1139 89.6826 59.6324 89.0679 58.087 89.066Z" fill="black"/>
<path fill-rule="evenodd" clip-rule="evenodd" d="M129.379 94.895C129.379 96.8385 128.607 98.7024 127.233 100.077C125.858 101.451 123.995 102.223 122.051 102.223C120.107 102.223 118.244 101.451 116.869 100.077C115.495 98.7024 114.723 96.8385 114.723 94.895C114.723 92.9515 115.495 91.0876 116.869 89.7133C118.244 88.3391 120.107 87.567 122.051 87.567C123.995 87.567 125.858 88.3391 127.233 89.7133C128.607 91.0876 129.379 92.9515 129.379 94.895Z" fill="#FCE8CB"/>
<path d="M122.051 103.723C117.183 103.723 113.223 99.763 113.223 94.895C113.223 90.027 117.183 86.066 122.051 86.066C126.919 86.066 130.879 90.027 130.879 94.895C130.879 99.763 126.918 103.723 122.051 103.723ZM122.051 89.066C120.506 89.0679 119.024 89.6826 117.932 90.7754C116.839 91.8682 116.225 93.3497 116.223 94.895C116.225 96.4402 116.839 97.9216 117.932 99.0143C119.024 100.107 120.506 100.721 122.051 100.723C123.596 100.721 125.078 100.107 126.17 99.0143C127.263 97.9216 127.877 96.4402 127.879 94.895C127.877 93.3497 127.263 91.8682 126.17 90.7754C125.078 89.6826 123.596 89.0679 122.051 89.066Z" fill="black"/>
<path d="M122.556 91.338C122.556 109.28 105.276 136.82 90.069 136.82C75.553 136.82 57.582 109.28 57.582 91.338C57.582 73.396 72.127 58.851 90.069 58.851C108.011 58.85 122.556 73.396 122.556 91.338Z" fill="#FCE8CB"/>
<path d="M90.069 138.319C82.819 138.319 74.464 132.247 67.148 121.659C60.322 111.781 56.082 100.162 56.082 91.337C56.082 72.597 71.329 57.35 90.069 57.35C108.809 57.35 124.056 72.597 124.056 91.337C124.056 110.315 106.153 138.319 90.069 138.319ZM90.069 60.351C72.983 60.351 59.082 74.251 59.082 91.338C59.082 108.05 76.393 135.32 90.069 135.32C96.481 135.32 104.222 129.579 110.776 119.963C117.117 110.659 121.056 99.691 121.056 91.339C121.056 74.251 107.156 60.351 90.069 60.351Z" fill="black"/>
<path d="M81.77 90.971C81.77 91.8121 81.4359 92.6188 80.8411 93.2136C80.2463 93.8084 79.4396 94.1425 78.5985 94.1425C77.7574 94.1425 76.9507 93.8084 76.3559 93.2136C75.7611 92.6188 75.427 91.8121 75.427 90.971C75.427 90.1299 75.7611 89.3232 76.3559 88.7284C76.9507 88.1336 77.7574 87.7995 78.5985 87.7995C79.4396 87.7995 80.2463 88.1336 80.8411 88.7284C81.4359 89.3232 81.77 90.1299 81.77 90.971ZM104.71 90.971C104.71 91.8121 104.376 92.6188 103.781 93.2136C103.186 93.8084 102.38 94.1425 101.538 94.1425C100.697 94.1425 99.8907 93.8084 99.2959 93.2136C98.7011 92.6188 98.367 91.8121 98.367 90.971C98.367 90.1299 98.7011 89.3232 99.2959 88.7284C99.8907 88.1336 100.697 87.7995 101.538 87.7995C102.38 87.7995 103.186 88.1336 103.781 88.7284C104.376 89.3232 104.71 90.1299 104.71 90.971Z" fill="black"/>
<path d="M77.724 100.398C77.724 102.653 75.278 104.481 72.262 104.481C69.245 104.481 66.8 102.653 66.8 100.398C66.8 98.143 69.246 96.315 72.262 96.315C75.279 96.315 77.724 98.143 77.724 100.398ZM113.338 100.398C113.338 102.653 110.893 104.481 107.876 104.481C104.859 104.481 102.414 102.653 102.414 100.398C102.414 98.143 104.859 96.315 107.876 96.315C110.893 96.315 113.338 98.143 113.338 100.398Z" fill="#F5978A"/>
<path d="M71.0391 141.119L77.6716 136.12L90.4659 153.098L83.8333 158.097L71.0391 141.119Z" fill="#082F49"/>
<path d="M83.839 159.589C83.384 159.589 82.935 159.383 82.64 158.992L69.845 142.014C69.7264 141.857 69.6399 141.678 69.5906 141.487C69.5412 141.296 69.5299 141.097 69.5573 140.902C69.5847 140.707 69.6502 140.519 69.7502 140.35C69.8502 140.18 69.9827 140.032 70.14 139.913L76.772 134.914C76.9291 134.795 77.1081 134.708 77.2988 134.659C77.4895 134.609 77.6882 134.598 77.8833 134.625C78.0784 134.653 78.2662 134.718 78.4359 134.818C78.6056 134.919 78.7538 135.051 78.872 135.209L91.667 152.187C91.9063 152.505 92.0098 152.904 91.9547 153.298C91.8996 153.692 91.6903 154.047 91.373 154.287L84.74 159.285C84.4815 159.483 84.1647 159.59 83.839 159.589ZM73.144 141.406L84.134 155.988L88.371 152.795L77.381 138.213L73.144 141.406Z" fill="black"/>
<path d="M97.0553 158.085L90.4229 153.087L103.218 136.11L109.85 141.108L97.0553 158.085Z" fill="#082F49"/>
<path d="M97.048 159.589C96.734 159.589 96.417 159.491 96.146 159.287L89.514 154.289C89.1965 154.05 88.9871 153.694 88.9318 153.3C88.8765 152.906 88.9798 152.507 89.219 152.189L102.014 135.211C102.253 134.894 102.609 134.684 103.003 134.629C103.397 134.573 103.796 134.677 104.114 134.916L110.746 139.915C111.063 140.154 111.273 140.51 111.328 140.904C111.384 141.298 111.28 141.697 111.041 142.015L98.246 158.993C97.952 159.383 97.503 159.589 97.048 159.589ZM92.518 152.796L96.755 155.988L107.745 141.406L103.508 138.213L92.518 152.796ZM90.068 119.189C85.248 119.189 81.772 117.022 79.737 112.747C79.6524 112.569 79.6036 112.376 79.5935 112.18C79.5833 111.983 79.6121 111.786 79.678 111.6C79.7439 111.415 79.8458 111.244 79.9777 111.098C80.1097 110.951 80.2691 110.833 80.447 110.748C80.6249 110.663 80.8177 110.615 81.0144 110.604C81.2111 110.594 81.4079 110.623 81.5935 110.689C81.7792 110.755 81.95 110.857 82.0963 110.989C82.2425 111.121 82.3614 111.28 82.446 111.458C83.983 114.686 86.404 116.189 90.068 116.189C94.69 116.189 97.043 113.171 97.64 111.576C97.7821 111.207 98.0643 110.909 98.425 110.747C98.7858 110.585 99.196 110.572 99.5663 110.71C99.9367 110.849 100.237 111.129 100.403 111.488C100.568 111.847 100.585 112.257 100.449 112.629C99.266 115.788 95.512 119.189 90.068 119.189Z" fill="black"/>
<path d="M127.041 79.431C127.041 82.759 126.608 85.986 125.79 89.058C117.469 85.046 109.554 80.121 102.221 74.554C100.07 72.923 97.952 71.225 95.929 69.426C93.446 67.248 91.099 64.9 88.981 62.357C84.374 56.81 80.992 50.437 78.13 43.801C81.8365 42.6023 85.7085 41.9946 89.604 42C100.313 42 109.973 46.499 116.799 53.71C123.39 60.6502 127.057 69.8602 127.041 79.431Z" fill="#082F49"/>
<path d="M125.79 90.557C125.567 90.557 125.344 90.507 125.139 90.408C116.933 86.452 108.917 81.52 101.314 75.748C98.888 73.909 96.8 72.206 94.933 70.546C92.267 68.206 89.874 65.772 87.83 63.316C83.69 58.331 80.171 52.319 76.754 44.394C76.6713 44.2022 76.6295 43.9953 76.6314 43.7865C76.6333 43.5777 76.6788 43.3715 76.7649 43.1813C76.851 42.9911 76.9759 42.8209 77.1316 42.6817C77.2873 42.5425 77.4703 42.4374 77.669 42.373C81.5246 41.127 85.5521 40.4949 89.604 40.5C100.41 40.5 110.456 44.825 117.889 52.679C124.759 59.928 128.542 69.429 128.542 79.431C128.542 82.834 128.104 86.203 127.24 89.444C127.155 89.7633 126.966 90.0454 126.704 90.2467C126.442 90.4479 126.121 90.557 125.79 90.557ZM80.187 44.751C83.273 51.646 86.456 56.966 90.136 61.397C92.079 63.731 94.362 66.054 96.919 68.297C98.734 69.912 100.763 71.565 103.128 73.357C110.054 78.615 117.326 83.16 124.768 86.883C125.283 84.45 125.542 81.951 125.542 79.43C125.542 70.199 122.051 61.431 115.711 54.741C108.849 47.492 99.578 43.5 89.604 43.5C86.397 43.5 83.237 43.92 80.187 44.751Z" fill="black"/>
<path d="M116.799 53.71C110.359 59.582 103.35 64.778 95.929 69.425C82.771 77.672 68.342 84.18 53.574 89.599C52.6418 86.2902 52.1707 82.8686 52.174 79.431C52.174 62.762 63.072 48.637 78.131 43.8C81.8373 42.6021 85.7089 41.9947 89.604 42C100.313 42 109.973 46.499 116.799 53.71Z" fill="#082F49"/>
<path d="M53.574 91.099C53.2473 91.0994 52.9294 90.9929 52.6688 90.7957C52.4083 90.5985 52.2194 90.3216 52.131 90.007C51.1617 86.5654 50.6714 83.0065 50.674 79.431C50.674 62.452 61.524 47.559 77.673 42.371C81.5275 41.1263 85.5535 40.4949 89.604 40.5C100.41 40.5 110.456 44.825 117.889 52.679C118.026 52.8238 118.132 52.9944 118.202 53.1808C118.273 53.3673 118.305 53.5658 118.298 53.7648C118.291 53.9639 118.244 54.1595 118.16 54.3403C118.077 54.5211 117.958 54.6835 117.811 54.818C111.595 60.485 104.501 65.827 96.726 70.696C84.642 78.27 70.696 84.913 54.091 91.006C53.9255 91.0673 53.7505 91.0988 53.574 91.099ZM89.604 43.5C85.834 43.5 82.13 44.081 78.593 45.227C63.686 50.015 53.673 63.76 53.673 79.431C53.673 82.201 53.988 84.947 54.611 87.616C70.335 81.754 83.604 75.38 95.132 68.155C102.275 63.682 108.827 58.806 114.629 53.647C107.891 47.091 99.063 43.5 89.604 43.5ZM207.204 55.5H152.704C152.306 55.5 151.925 55.342 151.643 55.0607C151.362 54.7794 151.204 54.3978 151.204 54C151.204 53.6022 151.362 53.2206 151.643 52.9393C151.925 52.658 152.306 52.5 152.704 52.5H207.204C207.602 52.5 207.983 52.658 208.265 52.9393C208.546 53.2206 208.704 53.6022 208.704 54C208.704 54.3978 208.546 54.7794 208.265 55.0607C207.983 55.342 207.602 55.5 207.204 55.5ZM207.204 73.5H152.704C152.306 73.5 151.925 73.342 151.643 73.0607C151.362 72.7794 151.204 72.3978 151.204 72C151.204 71.6022 151.362 71.2206 151.643 70.9393C151.925 70.658 152.306 70.5 152.704 70.5H207.204C207.602 70.5 207.983 70.658 208.265 70.9393C208.546 71.2206 208.704 71.6022 208.704 72C208.704 72.3978 208.546 72.7794 208.265 73.0607C207.983 73.342 207.602 73.5 207.204 73.5ZM207.204 91.5H152.704C152.306 91.5 151.925 91.342 151.643 91.0607C151.362 90.7794 151.204 90.3978 151.204 90C151.204 89.6022 151.362 89.2206 151.643 88.9393C151.925 88.658 152.306 88.5 152.704 88.5H207.204C207.602 88.5 207.983 88.658 208.265 88.9393C208.546 89.2206 208.704 89.6022 208.704 90C208.704 90.3978 208.546 90.7794 208.265 91.0607C207.983 91.342 207.602 91.5 207.204 91.5ZM207.204 109.5H152.704C152.306 109.5 151.925 109.342 151.643 109.061C151.362 108.779 151.204 108.398 151.204 108C151.204 107.602 151.362 107.221 151.643 106.939C151.925 106.658 152.306 106.5 152.704 106.5H207.204C207.602 106.5 207.983 106.658 208.265 106.939C208.546 107.221 208.704 107.602 208.704 108C208.704 108.398 208.546 108.779 208.265 109.061C207.983 109.342 207.602 109.5 207.204 109.5ZM207.204 127.5H152.704C152.306 127.5 151.925 127.342 151.643 127.061C151.362 126.779 151.204 126.398 151.204 126C151.204 125.602 151.362 125.221 151.643 124.939C151.925 124.658 152.306 124.5 152.704 124.5H207.204C207.602 124.5 207.983 124.658 208.265 124.939C208.546 125.221 208.704 125.602 208.704 126C208.704 126.398 208.546 126.779 208.265 127.061C207.983 127.342 207.602 127.5 207.204 127.5ZM207.204 145.5H152.704C152.306 145.5 151.925 145.342 151.643 145.061C151.362 144.779 151.204 144.398 151.204 144C151.204 143.602 151.362 143.221 151.643 142.939C151.925 142.658 152.306 142.5 152.704 142.5H207.204C207.602 142.5 207.983 142.658 208.265 142.939C208.546 143.221 208.704 143.602 208.704 144C208.704 144.398 208.546 144.779 208.265 145.061C207.983 145.342 207.602 145.5 207.204 145.5Z" fill="black"/>
<path d="M210.39 40.555V156.215C210.39 161.965 205.711 166.634 199.971 166.635H214.97C220.71 166.635 225.39 161.965 225.39 156.215V40.555C225.39 34.805 220.71 30.135 214.97 30.135H199.97C205.71 30.135 210.39 34.805 210.39 40.555Z" fill="#059669"/>
</svg>
