<svg width="496" height="496" viewBox="0 0 496 496" fill="none" xmlns="http://www.w3.org/2000/svg">
<rect width="496" height="496" fill="none"/>
<g clip-path="url(#clip0_0_1)">
<path d="M441.899 0H53.754C24.224 0 0.0429993 24.202 0.0429993 53.754V441.856C0.0429993 471.43 24.224 495.61 53.754 495.61H441.856C471.43 495.61 495.567 471.386 495.567 441.856V53.754C495.632 24.202 471.429 0 441.899 0ZM427.921 44.414C441.899 44.414 453.288 55.76 453.288 69.781C453.288 83.802 441.963 95.148 427.921 95.148C413.878 95.148 402.554 83.802 402.554 69.781C402.554 55.76 413.922 44.414 427.921 44.414ZM348.778 44.393C362.777 44.393 374.167 55.739 374.167 69.782C374.167 83.825 362.799 95.17 348.778 95.17C334.757 95.17 323.389 83.824 323.389 69.781C323.389 55.738 334.778 44.393 348.778 44.393ZM454.971 449.514H40.747V131.56H454.971V449.514Z" fill="#082F49"/>
<path d="M207.359 317.047H128.13V396.255H207.359V317.047Z" fill="#082F49"/>
<path d="M370.802 317.047H291.551V396.255H370.802V317.047Z" fill="#10B981"/>
<path d="M207.359 188.291H128.13V267.477H207.359V188.291Z" fill="#10B981"/>
<path d="M370.802 188.291H291.551V267.477H370.802V188.291Z" fill="#082F49"/>
</g>
<defs>
<clipPath id="clip0_0_1">
<rect width="495.61" height="495.61" fill="white"/>
</clipPath>
</defs>
</svg>
