<svg width="64" height="64" viewBox="0 0 64 64" fill="none" xmlns="http://www.w3.org/2000/svg">
<g clip-path="url(#clip0_1_2)">
<path d="M63 11V61C62.9984 61.5299 62.7872 62.0377 62.4125 62.4125C62.0377 62.7872 61.5299 62.9984 61 63H3C2.47005 62.9984 1.96227 62.7872 1.58753 62.4125C1.2128 62.0377 1.00158 61.5299 1 61V11H63Z" fill="#DFE1EA"/>
<path d="M61 1C61.5299 1.00158 62.0377 1.2128 62.4125 1.58753C62.7872 1.96227 62.9984 2.47005 63 3V11H1V3C1.00158 2.47005 1.2128 1.96227 1.58753 1.58753C1.96227 1.2128 2.47005 1.00158 3 1H61Z" fill="#ADB2C7"/>
<path d="M39.6 21C32 21 32 19 24.4 19C16.8 19 16.8 21 9.2 21C6.42322 21.0428 3.65673 20.6528 1 19.844V27.844C3.65673 28.6528 6.42322 29.0428 9.2 29C16.8 29 16.8 27 24.4 27C32 27 32 29 39.6 29C47.2 29 47.2 27 54.8 27C57.5768 26.9583 60.3432 27.3486 63 28.157V20.157C60.3432 19.3486 57.5768 18.9583 54.8 19C47.2 19 47.2 21 39.6 21Z" fill="#CDD2E1"/>
<path d="M1 11V19.844C3.65673 20.6528 6.42322 21.0428 9.2 21C16.8 21 16.8 19 24.4 19C32 19 32 21 39.6 21C47.2 21 47.2 19 54.8 19C57.5768 18.9583 60.3432 19.3486 63 20.157V11H1Z" fill="#F6FAFD"/>
<path d="M61.054 16H38.946C38.8217 15.9999 38.6987 16.0242 38.5838 16.0717C38.469 16.1192 38.3647 16.1889 38.2768 16.2768C38.1889 16.3647 38.1192 16.469 38.0717 16.5838C38.0242 16.6987 37.9999 16.8217 38 16.946V37.054C38.0001 37.1783 37.9758 37.3013 37.9283 37.4162C37.8808 37.531 37.8111 37.6353 37.7232 37.7232C37.6353 37.8111 37.531 37.8808 37.4162 37.9283C37.3013 37.9758 37.1783 38.0001 37.054 38H33.946C33.8217 37.9999 33.6987 38.0242 33.5838 38.0717C33.469 38.1192 33.3647 38.1889 33.2768 38.2768C33.1889 38.3647 33.1192 38.469 33.0717 38.5838C33.0242 38.6987 32.9999 38.8217 33 38.946V62.054C32.9999 62.1783 33.0242 62.3013 33.0717 62.4162C33.1192 62.531 33.1889 62.6353 33.2768 62.7232C33.3647 62.8111 33.469 62.8808 33.5838 62.9283C33.6987 62.9758 33.8217 63.0001 33.946 63H56.054C56.1783 63.0001 56.3013 62.9758 56.4162 62.9283C56.531 62.8808 56.6353 62.8111 56.7232 62.7232C56.8111 62.6353 56.8808 62.531 56.9283 62.4162C56.9758 62.3013 57.0001 62.1783 57 62.054V41.946C56.9999 41.8217 57.0242 41.6987 57.0717 41.5838C57.1192 41.469 57.1889 41.3647 57.2768 41.2768C57.3647 41.1889 57.469 41.1192 57.5838 41.0717C57.6987 41.0242 57.8217 40.9999 57.946 41H61.054C61.1783 41.0001 61.3013 40.9758 61.4162 40.9283C61.531 40.8808 61.6353 40.8111 61.7232 40.7232C61.8111 40.6353 61.8808 40.531 61.9283 40.4162C61.9758 40.3013 62.0001 40.1783 62 40.054V16.946C62.0001 16.8217 61.9758 16.6987 61.9283 16.5838C61.8808 16.469 61.8111 16.3647 61.7232 16.2768C61.6353 16.1889 61.531 16.1192 61.4162 16.0717C61.3013 16.0242 61.1783 15.9999 61.054 16Z" fill="#ADB2C7"/>
<path d="M20 44C27.1797 44 33 38.1797 33 31C33 23.8203 27.1797 18 20 18C12.8203 18 7 23.8203 7 31C7 38.1797 12.8203 44 20 44Z" fill="#ADB2C7"/>
<path d="M38 23H58V37H38V23Z" fill="white"/>
<path d="M38 15H58V23H38V15Z" fill="#10B981"/>
<path d="M41 26H55V34H41V26Z" fill="#DFE1EA"/>
<path d="M33 45H53V59H33V45Z" fill="white"/>
<path d="M33 37H53V45H33V37Z" fill="#082F49"/>
<path d="M36 48H50V56H36V48Z" fill="#DFE1EA"/>
<path d="M18 41C25.1797 41 31 35.1797 31 28C31 20.8203 25.1797 15 18 15C10.8203 15 5 20.8203 5 28C5 35.1797 10.8203 41 18 41Z" fill="white"/>
<path d="M5 5H7V7H5V5ZM14 5H59V7H14V5ZM41 18H43V20H41V18ZM45 18H47V20H45V18ZM40 40H42V42H40V40ZM36 40H38V42H36V40Z" fill="white"/>
<path d="M61 0H3C2.20435 0 1.44129 0.31607 0.87868 0.87868C0.31607 1.44129 0 2.20435 0 3L0 61C0 61.7956 0.31607 62.5587 0.87868 63.1213C1.44129 63.6839 2.20435 64 3 64H61C61.7956 64 62.5587 63.6839 63.1213 63.1213C63.6839 62.5587 64 61.7956 64 61V3C64 2.20435 63.6839 1.44129 63.1213 0.87868C62.5587 0.31607 61.7956 0 61 0ZM3 2H61C61.2652 2 61.5196 2.10536 61.7071 2.29289C61.8946 2.48043 62 2.73478 62 3V10H2V3C2 2.73478 2.10536 2.48043 2.29289 2.29289C2.48043 2.10536 2.73478 2 3 2ZM61 62H3C2.73478 62 2.48043 61.8946 2.29289 61.7071C2.10536 61.5196 2 61.2652 2 61V12H62V61C62 61.2652 61.8946 61.5196 61.7071 61.7071C61.5196 61.8946 61.2652 62 61 62Z" fill="black"/>
<path d="M18 42C20.7689 42 23.4757 41.1789 25.778 39.6406C28.0803 38.1022 29.8747 35.9157 30.9343 33.3576C31.9939 30.7994 32.2712 27.9845 31.731 25.2687C31.1908 22.553 29.8574 20.0584 27.8995 18.1005C25.9416 16.1426 23.447 14.8092 20.7313 14.269C18.0155 13.7288 15.2006 14.0061 12.6424 15.0657C10.0843 16.1253 7.89777 17.9197 6.35943 20.222C4.82109 22.5243 4 25.2311 4 28C4.00397 31.7118 5.48024 35.2705 8.10489 37.8951C10.7295 40.5198 14.2882 41.996 18 42ZM18 16C20.3734 16 22.6935 16.7038 24.6668 18.0224C26.6402 19.3409 28.1783 21.2151 29.0866 23.4078C29.9948 25.6005 30.2324 28.0133 29.7694 30.3411C29.3064 32.6689 28.1635 34.8071 26.4853 36.4853C24.8071 38.1635 22.6689 39.3064 20.3411 39.7694C18.0133 40.2324 15.6005 39.9948 13.4078 39.0866C11.2151 38.1783 9.34094 36.6402 8.02236 34.6668C6.70379 32.6935 6 30.3734 6 28C6.00344 24.8185 7.26883 21.7682 9.51852 19.5185C11.7682 17.2688 14.8185 16.0034 18 16Z" fill="black"/>
<path d="M14.707 32.293L10.414 28L14.707 23.707L13.293 22.293L8.293 27.293C8.10553 27.4805 8.00021 27.7348 8.00021 28C8.00021 28.2652 8.10553 28.5195 8.293 28.707L13.293 33.707L14.707 32.293ZM22.707 33.707L27.707 28.707C27.8945 28.5195 27.9998 28.2652 27.9998 28C27.9998 27.7348 27.8945 27.4805 27.707 27.293L22.707 22.293L21.293 23.707L25.586 28L21.293 32.293L22.707 33.707ZM58 14H38C37.7348 14 37.4804 14.1054 37.2929 14.2929C37.1054 14.4804 37 14.7348 37 15V36H33C32.7348 36 32.4804 36.1054 32.2929 36.2929C32.1054 36.4804 32 36.7348 32 37V59C32 59.2652 32.1054 59.5196 32.2929 59.7071C32.4804 59.8946 32.7348 60 33 60H53C53.2652 60 53.5196 59.8946 53.7071 59.7071C53.8946 59.5196 54 59.2652 54 59V38H58C58.2652 38 58.5196 37.8946 58.7071 37.7071C58.8946 37.5196 59 37.2652 59 37V15C59 14.7348 58.8946 14.4804 58.7071 14.2929C58.5196 14.1054 58.2652 14 58 14ZM57 16V22H39V16H57ZM34 58V46H52V58H34ZM52 44H34V38H52V44ZM53 36H39V24H57V36H53ZM7 56H28V58H7V56ZM7 51H28V53H7V51ZM15 46H28V48H15V46ZM7 46H11V48H7V46ZM9 5H11V7H9V5Z" fill="black"/>
<path d="M16.0126 33.8355L18.0147 21.8354L19.9874 22.1645L17.9853 34.1646L16.0126 33.8355Z" fill="black"/>
</g>
<defs>
<clipPath id="clip0_1_2">
<rect width="64" height="64" fill="white"/>
</clipPath>
</defs>
</svg>
